<!-- Generated by IcoMoon.io -->
<svg version="1.1" xmlns="http://www.w3.org/2000/svg" width="26" height="32" viewBox="0 0 26 32">
<title>Group-4</title>
<path fill="#ffed4a" d="M20.578 23.366c0.206 0.206 0.207 0.541-0.009 0.737-1.805 1.642-4.103 2.65-6.544 2.86-2.616 0.226-5.228-0.479-7.376-1.991s-3.693-3.732-4.363-6.271-0.423-5.233 0.698-7.608c1.121-2.375 3.045-4.277 5.431-5.373s5.083-1.314 7.615-0.616 4.736 2.267 6.224 4.431c1.388 2.018 2.070 4.434 1.949 6.871-0.014 0.291-0.274 0.503-0.564 0.475s-0.501-0.286-0.488-0.577c0.098-2.189-0.52-4.357-1.767-6.17-1.347-1.959-3.343-3.379-5.635-4.011s-4.733-0.434-6.894 0.557c-2.161 0.992-3.902 2.714-4.917 4.864s-1.239 4.589-0.632 6.888 2.006 4.309 3.95 5.678c1.944 1.368 4.309 2.007 6.678 1.802 2.193-0.189 4.259-1.089 5.888-2.556 0.217-0.195 0.55-0.196 0.756 0.010z"></path>
<path fill="#ffed4a" d="M13.080 7.611c0-0.226 0.184-0.41 0.41-0.399 1.443 0.071 2.847 0.501 4.084 1.256 1.354 0.826 2.454 2.008 3.182 3.417s1.054 2.99 0.944 4.572c-0.11 1.582-0.653 3.103-1.569 4.397s-2.17 2.312-3.625 2.942c-1.455 0.63-3.055 0.848-4.626 0.63s-3.051-0.863-4.28-1.865c-1.123-0.916-1.996-2.097-2.543-3.434-0.086-0.209 0.027-0.444 0.24-0.519s0.446 0.037 0.533 0.246c0.495 1.196 1.281 2.253 2.287 3.073 1.113 0.907 2.453 1.491 3.875 1.688s2.871-0 4.188-0.571c1.317-0.57 2.453-1.492 3.282-2.663s1.321-2.549 1.421-3.981c0.1-1.432-0.196-2.864-0.854-4.139s-1.655-2.345-2.88-3.093c-1.109-0.676-2.366-1.066-3.659-1.135-0.226-0.012-0.409-0.195-0.409-0.421z"></path>
<path fill="#ffed4a" d="M13.038 9.698v0c0.305 0 0.552 0.247 0.552 0.552v5.053c0 0.305-0.247 0.552-0.552 0.552v0c-0.305 0-0.552-0.247-0.552-0.552v-5.053c0-0.305 0.247-0.552 0.552-0.552z"></path>
<path fill="#ffed4a" d="M12.837 16.017c0.133 0.090 0.168 0.27 0.078 0.403l-3.56 5.269c-0.090 0.133-0.27 0.168-0.403 0.078s-0.168-0.27-0.078-0.403l3.56-5.269c0.090-0.133 0.27-0.168 0.403-0.078z"></path>
<path fill="#ffed4a" d="M13.996 15.854c0 0.513-0.416 0.929-0.929 0.929s-0.929-0.416-0.929-0.929c0-0.513 0.416-0.929 0.929-0.929s0.929 0.416 0.929 0.929z"></path>
<path fill="#ffed4a" d="M16.551 3.407l-6.969-0.035c-0.449-0.002-0.811-0.368-0.809-0.817l0.009-1.742c0.002-0.449 0.368-0.811 0.817-0.809l6.969 0.035c0.449 0.002 0.811 0.368 0.809 0.817l-0.009 1.742c-0.002 0.449-0.368 0.811-0.817 0.809z"></path>
<path fill="#ffed4a" d="M18.716 27.345c0.174 0.332 0.046 0.744-0.295 0.9-1.68 0.769-3.508 1.172-5.361 1.178s-3.683-0.384-5.368-1.143c-0.342-0.154-0.472-0.565-0.301-0.898s0.58-0.463 0.922-0.311c1.491 0.66 3.107 1 4.742 0.994s3.249-0.356 4.735-1.026c0.342-0.154 0.751-0.027 0.925 0.305z"></path>
<path fill="#ffed4a" d="M7.308 4.243c-0.175-0.332-0.048-0.744 0.292-0.901 1.678-0.774 3.504-1.182 5.357-1.194s3.684 0.374 5.371 1.127c0.342 0.153 0.474 0.563 0.304 0.897s-0.578 0.464-0.922 0.314c-1.493-0.656-3.109-0.991-4.745-0.981s-3.248 0.365-4.732 1.039c-0.341 0.155-0.751 0.030-0.925-0.302z"></path>
<path fill="#ffed4a" d="M9.534 28.135l6.969 0.020c0.449 0.001 0.812 0.366 0.811 0.815l-0.005 1.742c-0.001 0.449-0.366 0.812-0.815 0.811l-6.969-0.020c-0.449-0.001-0.812-0.366-0.811-0.815l0.005-1.742c0.001-0.449 0.366-0.812 0.815-0.811z"></path>
</svg>
